{
  "accessors": [
    {
      "bufferView": 2,
      "componentType": 5126,
      "count": 516,
      "max": [
        -0.021206000819802284,
        0.13502100110054016,
        5.398138046264648
      ],
      "min": [
        -0.06731300055980682,
        -0.1111920028924942,
        3.4597890377044678
      ],
      "type": "VEC3"
    },
    {
      "bufferView": 2,
      "byteOffset": 6192,
      "componentType": 5126,
      "count": 516,
      "max": [
        0.7178246378898621,
        0.7178246378898621,
        0.6962327361106873
      ],
      "min": [
        -0.7178246378898621,
        -0.7178246378898621,
        -0.6962327361106873
      ],
      "type": "VEC3"
    },
    {
      "bufferView": 1,
      "componentType": 5126,
      "count": 516,
      "max": [
        1.0,
        1.0
      ],
      "min": [
        0.0,
        0.009999999776482582
      ],
      "type": "VEC2"
    },
    {
      "bufferView": 0,
      "componentType": 5125,
      "count": 1512,
      "type": "SCALAR"
    },
    {
      "bufferView": 2,
      "byteOffset": 12384,
      "componentType": 5126,
      "count": 3548,
      "max": [
        1.3789680004119873,
        1.3718500137329102,
        7.037217140197754
      ],
      "min": [
        -1.3791559934616089,
        -1.3861949443817139,
        3.5058820247650146
      ],
      "type": "VEC3"
    },
    {
      "bufferView": 2,
      "byteOffset": 54960,
      "componentType": 5126,
      "count": 3548,
      "max": [
        0.9998214840888977,
        0.9998038411140442,
        0.9999994039535522
      ],
      "min": [
        -0.9997817873954773,
        -0.9997780919075012,
        -1.0
      ],
      "type": "VEC3"
    },
    {
      "bufferView": 0,
      "byteOffset": 6048,
      "componentType": 5125,
      "count": 21276,
      "type": "SCALAR"
    },
    {
      "bufferView": 2,
      "byteOffset": 97536,
      "componentType": 5126,
      "count": 809,
      "max": [
        0.13102500140666962,
        0.28126800060272217,
        4.930251121520996
      ],
      "min": [
        -0.20508599281311035,
        -0.29199299216270447,
        3.2474660873413086
      ],
      "type": "VEC3"
    },
    {
      "bufferView": 2,
      "byteOffset": 107244,
      "componentType": 5126,
      "count": 809,
      "max": [
        0.9999997615814209,
        0.9999991655349731,
        1.0
      ],
      "min": [
        -0.9999982118606567,
        -0.9999991655349731,
        -0.9999490976333618
      ],
      "type": "VEC3"
    },
    {
      "bufferView": 1,
      "byteOffset": 4128,
      "componentType": 5126,
      "count": 809,
      "max": [
        0.875,
        1.0
      ],
      "min": [
        0.125,
        0.0
      ],
      "type": "VEC2"
    },
    {
      "bufferView": 0,
      "byteOffset": 91152,
      "componentType": 5125,
      "count": 4416,
      "type": "SCALAR"
    },
    {
      "bufferView": 2,
      "byteOffset": 116952,
      "componentType": 5126,
      "count": 703,
      "max": [
        -0.0871649980545044,
        0.7111030220985413,
        5.922402858734131
      ],
      "min": [
        -0.5390430092811584,
        -0.7397279739379883,
        5.69379997253418
      ],
      "type": "VEC3"
    },
    {
      "bufferView": 2,
      "byteOffset": 125388,
      "componentType": 5126,
      "count": 703,
      "max": [
        0.9923986792564392,
        0.7986915111541748,
        0.9985660910606384
      ],
      "min": [
        -0.99216228723526,
        -0.7987141609191895,
        -0.9987684488296509
      ],
      "type": "VEC3"
    },
    {
      "bufferView": 1,
      "byteOffset": 10600,
      "componentType": 5126,
      "count": 703,
      "max": [
        1.0,
        1.0
      ],
      "min": [
        0.0,
        0.0
      ],
      "type": "VEC2"
    },
    {
      "bufferView": 0,
      "byteOffset": 108816,
      "componentType": 5125,
      "count": 3888,
      "type": "SCALAR"
    },
    {
      "bufferView": 2,
      "byteOffset": 133824,
      "componentType": 5126,
      "count": 2334,
      "max": [
        0.8615679740905762,
        0.8296899795532227,
        5.882093906402588
      ],
      "min": [
        -0.802282989025116,
        -0.8341609835624695,
        2.0338339805603027
      ],
      "type": "VEC3"
    },
    {
      "bufferView": 2,
      "byteOffset": 161832,
      "componentType": 5126,
      "count": 2334,
      "max": [
        1.0,
        1.0,
        1.0
      ],
      "min": [
        -1.0,
        -1.0,
        -1.0
      ],
      "type": "VEC3"
    },
    {
      "bufferView": 1,
      "byteOffset": 16224,
      "componentType": 5126,
      "count": 2334,
      "max": [
        1.0,
        1.0
      ],
      "min": [
        0.0,
        0.0
      ],
      "type": "VEC2"
    },
    {
      "bufferView": 0,
      "byteOffset": 124368,
      "componentType": 5125,
      "count": 12342,
      "type": "SCALAR"
    },
    {
      "bufferView": 2,
      "byteOffset": 189840,
      "componentType": 5126,
      "count": 3200,
      "max": [
        0.4786129891872406,
        0.7522569894790649,
        5.721667766571045
      ],
      "min": [
        -0.4193280041217804,
        -0.7542939782142639,
        2.0338339805603027
      ],
      "type": "VEC3"
    },
    {
      "bufferView": 2,
      "byteOffset": 228240,
      "componentType": 5126,
      "count": 3200,
      "max": [
        0.9991424083709717,
        0.9813850522041321,
        0.9774149060249329
      ],
      "min": [
        -0.9994496703147888,
        -0.9813850522041321,
        -0.9836626648902893
      ],
      "type": "VEC3"
    },
    {
      "bufferView": 1,
      "byteOffset": 34896,
      "componentType": 5126,
      "count": 3200,
      "max": [
        1.0,
        1.0
      ],
      "min": [
        0.0,
        0.0
      ],
      "type": "VEC2"
    },
    {
      "bufferView": 0,
      "byteOffset": 173736,
      "componentType": 5125,
      "count": 17004,
      "type": "SCALAR"
    }
  ],
  "asset": {
    "extras": {
      "author": "ezleze (https://sketchfab.com/ezleze)",
      "license": "CC-BY-4.0 (http://creativecommons.org/licenses/by/4.0/)",
      "source": "https://sketchfab.com/3d-models/classic-bulb-98802c74f0dd463eb19a48bc5cf8091c",
      "title": "Classic Bulb"
    },
    "generator": "Sketchfab-16.64.0",
    "version": "2.0"
  },
  "bufferViews": [
    {
      "buffer": 0,
      "byteLength": 241752,
      "name": "floatBufferViews",
      "target": 34963
    },
    {
      "buffer": 0,
      "byteLength": 60496,
      "byteOffset": 241752,
      "byteStride": 8,
      "name": "floatBufferViews",
      "target": 34962
    },
    {
      "buffer": 0,
      "byteLength": 266640,
      "byteOffset": 302248,
      "byteStride": 12,
      "name": "floatBufferViews",
      "target": 34962
    }
  ],
  "buffers": [
    {
      "byteLength": 568888,
      "uri": "scene.bin"
    }
  ],
  "materials": [
    {
      "doubleSided": true,
      "name": "ALUMOPAC",
      "pbrMetallicRoughness": {
        "baseColorFactor": [
          0.089152,
          0.089152,
          0.089152,
          1.0
        ],
        "metallicFactor": 0.0,
        "roughnessFactor": 0.8758588101900806
      }
    },
    {
      "doubleSided": true,
      "name": "Alumscrew",
      "pbrMetallicRoughness": {
        "baseColorFactor": [
          0.274997,
          0.274997,
          0.274997,
          1.0
        ],
        "metallicFactor": 0.0,
        "roughnessFactor": 0.7888569531092309
      }
    },
    {
      "doubleSided": true,
      "name": "GLASS",
      "pbrMetallicRoughness": {
        "baseColorFactor": [
          0.8,
          0.8,
          0.8,
          1.0
        ],
        "metallicFactor": 0.0,
        "roughnessFactor": 0.7822061412653569
      }
    },
    {
      "doubleSided": true,
      "name": "Material.005",
      "pbrMetallicRoughness": {
        "baseColorFactor": [
          0.8,
          0.8,
          0.8,
          1.0
        ],
        "metallicFactor": 0.0,
        "roughnessFactor": 0.7822061412653569
      }
    },
    {
      "doubleSided": true,
      "name": "blackscrew",
      "pbrMetallicRoughness": {
        "baseColorFactor": [
          0.010666,
          0.010666,
          0.010666,
          1.0
        ],
        "metallicFactor": 0.0,
        "roughnessFactor": 0.7554773963096519
      }
    }
  ],
  "meshes": [
    {
      "name": "Object_0",
      "primitives": [
        {
          "attributes": {
            "NORMAL": 1,
            "POSITION": 0,
            "TEXCOORD_0": 2
          },
          "indices": 3,
          "material": 0,
          "mode": 4
        }
      ]
    },
    {
      "name": "Object_1",
      "primitives": [
        {
          "attributes": {
            "NORMAL": 5,
            "POSITION": 4
          },
          "indices": 6,
          "material": 2,
          "mode": 4
        }
      ]
    },
    {
      "name": "Object_2",
      "primitives": [
        {
          "attributes": {
            "NORMAL": 8,
            "POSITION": 7,
            "TEXCOORD_0": 9
          },
          "indices": 10,
          "material": 2,
          "mode": 4
        }
      ]
    },
    {
      "name": "Object_3",
      "primitives": [
        {
          "attributes": {
            "NORMAL": 12,
            "POSITION": 11,
            "TEXCOORD_0": 13
          },
          "indices": 14,
          "material": 3,
          "mode": 4
        }
      ]
    },
    {
      "name": "Object_4",
      "primitives": [
        {
          "attributes": {
            "NORMAL": 16,
            "POSITION": 15,
            "TEXCOORD_0": 17
          },
          "indices": 18,
          "material": 1,
          "mode": 4
        }
      ]
    },
    {
      "name": "Object_5",
      "primitives": [
        {
          "attributes": {
            "NORMAL": 20,
            "POSITION": 19,
            "TEXCOORD_0": 21
          },
          "indices": 22,
          "material": 4,
          "mode": 4
        }
      ]
    }
  ],
  "nodes": [
    {
      "children": [
        1
      ],
      "matrix": [
        1.0,
        0.0,
        0.0,
        0.0,
        0.0,
        2.220446049250313e-16,
        -1.0,
        0.0,
        0.0,
        1.0,
        2.220446049250313e-16,
        0.0,
        0.0,
        0.0,
        0.0,
        1.0
      ],
      "name": "Sketchfab_model"
    },
    {
      "children": [
        2,
        3,
        4,
        5,
        6,
        7
      ],
      "name": "Bulb.obj.cleaner.materialmerger.gles"
    },
    {
      "mesh": 0,
      "name": "Object_2"
    },
    {
      "mesh": 1,
      "name": "Object_3"
    },
    {
      "mesh": 2,
      "name": "Object_4"
    },
    {
      "mesh": 3,
      "name": "Object_5"
    },
    {
      "mesh": 4,
      "name": "Object_6"
    },
    {
      "mesh": 5,
      "name": "Object_7"
    }
  ],
  "scene": 0,
  "scenes": [
    {
      "name": "Sketchfab_Scene",
      "nodes": [
        0
      ]
    }
  ]
}
